<svg xmlns="http://www.w3.org/2000/svg" version="1.1" xmlns:xlink="http://www.w3.org/1999/xlink" xmlns:svgjs="http://svgjs.dev/svgjs" width="4000" height="2000" preserveAspectRatio="none" viewBox="0 0 4000 2000"><g mask="url(&quot;#SvgjsMask1146&quot;)" fill="none"><rect width="4000" height="2000" x="0" y="0" fill="rgba(132, 204, 22, 1)"></rect><path d="M0,1120.222C253.341,1150.506,549.841,1324.826,748.602,1164.848C953.215,1000.16,848.214,665.152,887.967,405.521C916.035,222.203,927.588,48.071,947.82,-136.276C976.071,-393.686,1141.776,-659.093,1030.472,-892.909C917.795,-1129.609,648.024,-1300.054,386.344,-1315.767C130.068,-1331.156,-40.159,-1047.95,-285.382,-971.923C-524.817,-897.691,-841.815,-1060.588,-1016.534,-880.831C-1189.252,-703.133,-1086.333,-402.878,-1079.242,-155.172C-1073.299,52.421,-1052.15,252.688,-978.526,446.878C-900.561,652.516,-822.962,873.977,-641.79,998.645C-458.711,1124.625,-220.665,1093.844,0,1120.222" fill="#6aa312"></path><path d="M4000 3441.0950000000003C4266.555 3450.9610000000002 4474.053 3230.7889999999998 4702.704 3093.429 4939.216 2951.3469999999998 5234.909 2866.846 5362.836 2622.3869999999997 5492.308 2374.975 5467.927 2066.362 5378.632 1801.783 5296.702 1559.028 5073.777 1407.623 4891.938 1227.132 4724.504 1060.9389999999999 4559.124 907.2270000000001 4356.192 786.923 4094.044 631.5129999999999 3839.623 385.99299999999994 3537.255 424.0340000000001 3231.6639999999998 462.481 3007.897 733.761 2822.6890000000003 979.854 2645.9359999999997 1214.712 2550.5640000000003 1494.662 2512.183 1786.084 2474.145 2074.906 2445.49 2393.191 2604.393 2637.352 2758.623 2874.333 3084.929 2901.507 3329.95 3042.617 3559.792 3174.9849999999997 3734.949 3431.284 4000 3441.0950000000003" fill="#9ce827"></path></g><defs><mask id="SvgjsMask1146"><rect width="4000" height="2000" fill="#ffffff"></rect></mask></defs></svg>