<svg xmlns="http://www.w3.org/2000/svg" version="1.1" xmlns:xlink="http://www.w3.org/1999/xlink" xmlns:svgjs="http://svgjs.dev/svgjs" width="4000" height="2000" preserveAspectRatio="none" viewBox="0 0 4000 2000"><g mask="url(&quot;#SvgjsMask2236&quot;)" fill="none"><rect width="4000" height="2000" x="0" y="0" fill="url(&quot;#SvgjsLinearGradient2237&quot;)"></rect><path d="M0 0L1116.48 0L0 598.77z" fill="rgba(255, 255, 255, .1)"></path><path d="M0 598.77L1116.48 0L2655.7 0L0 1284.37z" fill="rgba(255, 255, 255, .075)"></path><path d="M0 1284.37L2655.7 0L2804.3799999999997 0L0 1367.03z" fill="rgba(255, 255, 255, .05)"></path><path d="M0 1367.03L2804.3799999999997 0L3283.2599999999998 0L0 1600.23z" fill="rgba(255, 255, 255, .025)"></path><path d="M4000 2000L2518.8199999999997 2000L4000 1093.23z" fill="rgba(0, 0, 0, .1)"></path><path d="M4000 1093.23L2518.8199999999997 2000L2317.6099999999997 2000L4000 569.39z" fill="rgba(0, 0, 0, .075)"></path><path d="M4000 569.3899999999999L2317.6099999999997 2000L2187.0599999999995 2000L4000 371.04999999999984z" fill="rgba(0, 0, 0, .05)"></path><path d="M4000 371.04999999999995L2187.06 2000L802.96 2000L4000 307.49999999999994z" fill="rgba(0, 0, 0, .025)"></path></g><defs><mask id="SvgjsMask2236"><rect width="4000" height="2000" fill="#ffffff"></rect></mask><linearGradient x1="50%" y1="0%" x2="50%" y2="100%" gradientUnits="userSpaceOnUse" id="SvgjsLinearGradient2237"><stop stop-color="rgba(154, 255, 0, 1)" offset="0.01"></stop><stop stop-color="rgba(99, 165, 0, 1)" offset="0.47"></stop><stop stop-color="rgba(59, 98, 0, 1)" offset="0.99"></stop></linearGradient></defs></svg>